<?xml version="1.0" standalone="no"?>
<!DOCTYPE svg PUBLIC "-//W3C//DTD SVG 20010904//EN"
 "http://www.w3.org/TR/2001/REC-SVG-20010904/DTD/svg10.dtd">
<svg version="1.0" xmlns="http://www.w3.org/2000/svg"
 width="512.000000pt" height="512.000000pt" viewBox="0 0 512.000000 512.000000"
 preserveAspectRatio="xMidYMid meet">
<metadata>
Created by potrace 1.11, written by Peter Selinger 2001-2013
</metadata>
<g transform="translate(0.000000,512.000000) scale(0.100000,-0.100000)"
fill="#000000" stroke="none">
<path d="M513 4966 c-168 -41 -325 -194 -370 -361 -4 -17 -9 -937 -10 -2045
l-2 -2015 24 -68 c58 -168 187 -287 360 -333 67 -18 3982 -21 4067 -3 182 38
334 185 383 370 13 46 14 347 12 2069 l-2 2015 -26 62 c-70 162 -187 264 -354
308 -53 13 -282 15 -2045 14 -1554 -1 -1996 -3 -2037 -13z"/>
</g>
</svg>
